<svg id="Capa_1" data-name="Capa 1" xmlns="http://www.w3.org/2000/svg" viewBox="0 0 110 135">
  <g>
    <path d="M72.67,59.23a1.53,1.53,0,0,0-.46-1.1,1.57,1.57,0,0,0-1.1-.46H66.53v-26H38.86v26H34.3a1.56,1.56,0,0,0-1.57,1.56v1.46H72.67Zm-18.4-7.67a1.57,1.57,0,0,1-3.13,0v-3a1.57,1.57,0,0,1,3.13,0Zm0-9.2a1.57,1.57,0,0,1-3.13,0V36.22a1.57,1.57,0,0,1,3.13,0Z"/>
    <path d="M68.7,28.56l3-3.12H54.27v3H68.33Z"/>
    <path d="M51.14,16.25H34.3a1.56,1.56,0,0,0-1.57,1.56v4.58H51.14Z"/>
    <path d="M72.67,17.81a1.57,1.57,0,0,0-1.56-1.56H54.27v6.14h18.4Z"/>
    <path d="M37.08,28.52H51.14v-3H33.66l3,3.12a1.29,1.29,0,0,1,.38-.12Z"/>
    <path d="M74.17,63.81H31.22a4.69,4.69,0,1,0,0,9.25h1.56V95.94a7.82,7.82,0,0,0,7.81,7.81H64.86a7.82,7.82,0,0,0,7.81-7.81V73.06h1.57a4.69,4.69,0,0,0-.07-9.25Zm-11.81,29c-2.53,4.11-7.94,6.83-12.25,4.1a6.66,6.66,0,0,1-2.67-3.38A11.64,11.64,0,0,1,43,89.41C36.78,79.81,47,70,55.53,79.19c7.95-1.66,11,7.86,6.83,13.62Z"/>
    <path d="M60.66,84.44a4.47,4.47,0,0,0-1,.89c-.63,1.69-.88,3.59-2.74,5.09s-3.48,2.52-3.87,4.42c4.43.8,8.48-4.59,8-8.73a6,6,0,0,0-.42-1.67Z"/>
    <path d="M58.28,82.31c-5.11-1.31-10,6.35-7.81,10.35.72-2,2.76-3.33,4.47-4.69,1.86-1.72,1-4,3.34-5.66Z"/>
    <path d="M52.39,80.53A5.88,5.88,0,0,0,47.11,79a4.85,4.85,0,0,1,1.45,1.67c.36.75.53,1.77.91,2.58a11.51,11.51,0,0,1,2.92-2.69Z"/>
    <path d="M44.73,81a7.46,7.46,0,0,0,.94,6.77c1.83,3,1.08,0,2-1.57a12.85,12.85,0,0,1-2-4.36,5,5,0,0,0-1-.84Z"/>
    <path d="M75.8,76.08V79.2h1.45a3,3,0,0,1,3,3.13v9.2a3,3,0,0,1-3,3H75.8v1.38a10.36,10.36,0,0,1-.14,1.67h1.56a6.26,6.26,0,0,0,6.16-6.16v-9.2c0-4.2-3.61-6.63-7.58-6.17Z"/>
  </g>
</svg>
