<svg id="Capa_1" data-name="Capa 1" xmlns="http://www.w3.org/2000/svg" viewBox="0 0 100 125">
  <path d="M30.4,90H63.9c7.3,0,11.5-5.7,9.4-12.7L64.5,49.2a.64.64,0,0,1,.6-.8h4.8a1,1,0,0,0,.9-1.3L69,41.7a.46.46,0,0,1,.7-.5L76.2,46a1,1,0,0,0,1.5-.3l2.2-3.8a1,1,0,0,0-.5-1.4l-7.8-3.4c-.4-.2-.4-.7,0-.8l7.8-3.4a1,1,0,0,0,.5-1.4l-2.2-3.8a1,1,0,0,0-1.5-.3l-7,5.2a.48.48,0,0,1-.7-.5L70,26.2a.94.94,0,0,0-.9-1.2H64.3a.64.64,0,0,1-.6-.8l2.9-11.9A1.84,1.84,0,0,0,64.8,10H29.5a1.84,1.84,0,0,0-1.8,2.3l2.9,11.9a.64.64,0,0,1-.6.8H25.2a.94.94,0,0,0-.9,1.2l2.4,9.7a1.7,1.7,0,0,1,0,1L23.5,47a1,1,0,0,0,.9,1.3h4.8a.64.64,0,0,1,.6.8L21,77.3C18.8,84.3,23,90,30.4,90ZM58,19l-1.1,4.6A1.92,1.92,0,0,1,55.1,25h-16a1.83,1.83,0,0,1-1.8-1.4L36.2,19A1.84,1.84,0,0,1,38,16.7H56.2A1.84,1.84,0,0,1,58,19ZM38.4,48.3H55.8a1.92,1.92,0,0,1,1.8,1.3c.6,1.9,1.8,5.6,2.6,8.3a1.86,1.86,0,0,1-2.1,2.4,18.76,18.76,0,0,0-10.9,1.1,19,19,0,0,1-12.4.7,1.83,1.83,0,0,1-1.2-2.4l3.2-10.1A1.62,1.62,0,0,1,38.4,48.3Z"/>
</svg>
