<svg id="Capa_1" data-name="Capa 1" xmlns="http://www.w3.org/2000/svg" viewBox="0 0 64 80">
  <g>
    <path d="M44,5V3a2,2,0,0,0-2-2H34a2,2,0,0,0-2,2V9H44Z"/>
    <path d="M47,15h-.1a4.09,4.09,0,0,1-3.8-2.7L42.7,11H33.4L33,12.3A4,4,0,0,1,29.2,15H29a8,8,0,0,0-8,8V33h4V29a2,2,0,0,1,2-2H49a2,2,0,0,1,2,2V51a2,2,0,0,1-2,2H31.9L31,59.1V61a4.55,4.55,0,0,1-.5,2H47a8,8,0,0,0,8-8V23A8,8,0,0,0,47,15Z"/>
    <path d="M13,63H27a2,2,0,0,0,2-2H11A2,2,0,0,0,13,63Z"/>
    <path d="M13.3,39.7a8.42,8.42,0,0,0,2.7-.4,13.63,13.63,0,0,1,8,0,8.42,8.42,0,0,0,2.7.4,9.85,9.85,0,0,0,1.7-.2L31,39V35H9v4l2.6.5A11.14,11.14,0,0,0,13.3,39.7Z"/>
    <path d="M31,41.4V41l-2.2.5a11,11,0,0,1-5.4-.3,11,11,0,0,0-6.7,0,9.9,9.9,0,0,1-5.4.3L9,41v.4a56.48,56.48,0,0,0,.5,7.1L11,59H29l1.5-10.5A55.19,55.19,0,0,0,31,41.4ZM17,49H13V45h4Zm3,6.8L17.2,53,20,50.2,22.8,53Zm4-6L21.2,47,24,44.2,26.8,47Z"/>
    <path d="M36.9,40l.3-.9a4.72,4.72,0,0,1,3-3l1.2-.4A2.86,2.86,0,0,0,43.1,34l.1-.5c-2.2-1.3-6-.2-8.9,2.8A17.38,17.38,0,0,0,33,37.8v4.8a4.55,4.55,0,0,1,1.9-.8A3,3,0,0,0,36.9,40Z"/>
    <path d="M41.7,43.7c2.7-2.7,3.8-6.1,3-8.4A4.72,4.72,0,0,1,42,37.6l-1.2.4a2.86,2.86,0,0,0-1.7,1.7l-.3.9a4.88,4.88,0,0,1-3.6,3.2,3,3,0,0,0-1.9,1.4l-.6,1.2C35,47.7,38.8,46.6,41.7,43.7Z"/>
  </g>
</svg>
