<svg id="Capa_1" data-name="Capa 1" xmlns="http://www.w3.org/2000/svg" viewBox="0 0 110 135">
  <defs>
    <style>
      .cls-1 {
        fill-rule: evenodd;
      }
    </style>
  </defs>
  <path class="cls-1" d="M21.67,35H19.59a6.25,6.25,0,0,1-6.25-6.25V24.58a6.25,6.25,0,0,1,6.25-6.25H90.42a6.25,6.25,0,0,1,6.25,6.25v4.17A6.25,6.25,0,0,1,90.42,35H88.34V85h2.08a6.25,6.25,0,0,1,6.25,6.25v4.17a6.25,6.25,0,0,1-6.25,6.25H19.59a6.25,6.25,0,0,1-6.25-6.25V91.25A6.25,6.25,0,0,1,19.59,85h2.08Zm14.58,0H25.83V85H84.16V35H73.75v2.08a6.25,6.25,0,0,1-6.25,6.25h-25a6.24,6.24,0,0,1-6.25-6.25V35Z"/>
  <path class="cls-1" d="M44.58,41.25a2.09,2.09,0,0,1,4.17,0V47.5a2.09,2.09,0,0,1-4.17,0Z"/>
  <path class="cls-1" d="M61.25,41.25a2.08,2.08,0,0,1,4.16,0V47.5a2.08,2.08,0,0,1-4.16,0Z"/>
  <path class="cls-1" d="M67.5,57.92V87.09a2.08,2.08,0,0,1-2.08,2.08H44.59a2.09,2.09,0,0,1-2.09-2.08V57.92a2.09,2.09,0,0,1,2.09-2.08H65.42A2.08,2.08,0,0,1,67.5,57.92Z"/>
  <path class="cls-1" d="M75.83,64.17v12.5a2.08,2.08,0,0,1-2.08,2.08H65.42a2.08,2.08,0,0,1-2.08-2.08V64.17a2.08,2.08,0,0,1,2.08-2.08h8.33A2.08,2.08,0,0,1,75.83,64.17Zm-4.17,2.08H67.5v8.33h4.16Z"/>
</svg>
