<svg id="Capa_1" data-name="Capa 1" xmlns="http://www.w3.org/2000/svg" viewBox="0 0 110 135">
  <defs>
    <style>
      .cls-1 {
        fill-rule: evenodd;
      }
    </style>
  </defs>
  <path class="cls-1" d="M75.8,39.14H57.08V78.75h12.4s3.46,0,3.5,2.08-3.43,2.09-3.43,2.09H40.45S37,82.92,37,80.83s3.5-2.08,3.5-2.08h12.4V39.14H34.2v0H23.75a2.09,2.09,0,0,0-1.67,3.33L34.13,58.65V97.5a2.09,2.09,0,0,0,0,4.17H75.83a2.09,2.09,0,1,0,0-4.17V78.75h6.25a6.25,6.25,0,0,0,6.25-6.25V45.42a6.25,6.25,0,0,0-6.25-6.25H75.8Zm0,35.44V43.33h6.25a2.1,2.1,0,0,1,2.09,2.09V72.5a2.09,2.09,0,0,1-2.09,2.08ZM52.92,35v-8.3H47.66a13.47,13.47,0,0,0-9.54,3.93A13.15,13.15,0,0,0,35.2,35Zm4.16,0H74.81a13.47,13.47,0,0,0-12.47-8.3H57.08ZM52.93,22.49v4.18h4.16V22.49h6.24a2.08,2.08,0,1,0,0-4.16H46.61a2.08,2.08,0,1,0,0,4.16Z"/>
</svg>
