<svg id="Capa_1" data-name="Capa 1" xmlns="http://www.w3.org/2000/svg" viewBox="0 0 100 125">
  <path d="M85.72,84.52,70.21,52.14a3.92,3.92,0,0,0-3.52-2.22H33.31a3.9,3.9,0,0,0-3.52,2.22L14.28,84.52a14.09,14.09,0,0,0-1.39,6.12v.21A14.16,14.16,0,0,0,27,105H73A14.16,14.16,0,0,0,87.11,90.85v-.21A14.09,14.09,0,0,0,85.72,84.52ZM75.39,90.85A2.43,2.43,0,0,1,73,93.28H27a2.43,2.43,0,0,1-2.43-2.43v-.22a2.41,2.41,0,0,1,.24-1L33,72.6a2,2,0,0,1,1.87-1.11c15.22.86,16.3,7.73,33.54,7.73H69a2,2,0,0,1,1.76,1.11l4.43,9.25a2.42,2.42,0,0,1,.24,1.06v.21ZM62.53,36.25l3-5.86h8.78a8.88,8.88,0,0,0,8.93-8.64,8.79,8.79,0,0,0-8.79-8.94h0L76,9.64a3.4,3.4,0,0,0,.35-1.12A3.16,3.16,0,0,0,73.21,5H26.87a3.22,3.22,0,0,0-3.12,2.3A3.15,3.15,0,0,0,24,9.58l13.5,26.67H19.73a3.91,3.91,0,0,0-3.91,3.91h0a3.91,3.91,0,0,0,3.91,3.9H80.27a3.91,3.91,0,0,0,3.91-3.9h0a3.91,3.91,0,0,0-3.91-3.91Zm8.9-17.58h3a2.93,2.93,0,1,1,0,5.86h-6Z"/>
</svg>
