<svg id="Capa_1" data-name="Capa 1" xmlns="http://www.w3.org/2000/svg" viewBox="0 0 1422.77 388.5">
  <defs>
    <style>
      .cls-1 {
        font-size: 350px;
        font-family: VeltoDemo-Regular, Velto Demo;
      }
    </style>
  </defs>
  <text class="cls-1" transform="translate(0 297.5)">bean</text>
  <g>
    <path d="M1120.71,649.78v-7.35q13.65-2.1,21.87-9.28t11-22.92l29.4-165.9q2.79-16.09-1.58-23.28t-17.32-8.92v-7.35h88.55v7.35q-13.65,2.1-21.88,9.27t-11,22.93l-36.4,205.45h-62.65ZM1165.16,634h81.55q19.59,0,34.82-14.53t25-35.87l7,2.1-15.4,52.85-3.15,11.2H1162.36Z" transform="translate(-246.11 -352.28)"/>
    <path d="M1483.47,714.7q-16.62-11-13.47-28.52,2.45-13,13.82-21.35t27.48-12.6l.35-1.05q-13.65-1.75-18.2-8.75t-2.8-16.45q3.15-20.65,28.7-32.9l4.9-2.45a46.33,46.33,0,0,1-15.58-22q-4.73-13.65-1.57-31.5,3.84-21,15.92-36.4a81.32,81.32,0,0,1,28.7-23.45,76.71,76.71,0,0,1,33.78-8.05h15.75a60,60,0,0,0,18.37-2.45,121.32,121.32,0,0,0,16.63-7,100.67,100.67,0,0,1,10.85-5.08,26.76,26.76,0,0,1,9.45-1.57q7,0,10.15,4.2t1.75,11.9q-1.76,8.06-7.18,12.25t-15.92,4.2a30.54,30.54,0,0,1-9.1-1.4q-4.56-1.39-9.1-3.15l-8.4-3.15v.7A44.83,44.83,0,0,1,1635.9,501q5.25,14.36,2.1,33.25a81.55,81.55,0,0,1-15.75,35.87,79.74,79.74,0,0,1-62.65,31,66.17,66.17,0,0,1-28-6l-7.7,3.85q-9.45,4.9-10.85,11.55a6.08,6.08,0,0,0,1.92,6.12q2.63,2.28,8.58,2.28h61.6q26.6,0,40.25,13.12t9.45,36.58q-4.9,27.65-29.75,42.35t-68.95,14.7Q1500.09,725.73,1483.47,714.7ZM1586,705.6q14.88-9.63,18-26.42,2.1-13-5.43-20.3t-26.07-7.35h-31.5q-13.65,0-23.1,8.05t-11.9,21.7q-3.15,17.85,7.52,25.9t31.33,8.05Q1571.15,715.23,1586,705.6Zm2.28-128.1q10.5-13.12,16.1-44.27,5.25-28.35-.35-41t-20.65-12.6q-15.75,0-26.43,13.3t-16.27,44.45q-4.9,28,.7,40.6t20.3,12.6Q1577.8,590.63,1588.3,577.5Z" transform="translate(-246.11 -352.28)"/>
  </g>
  <g>
    <path d="M1422.57,467c10.58-1.19,21.9-1.14,31.75,3.42,4.24,1.79,3.09,6.83,2.13,10.33-6.6,24.83-19.26,49-39.88,65-6.32,5.79-14.22,9.27-21.28,14-25.63,20.15-41.93,50.5-48.32,82.18-.56,3.51-5,3.79-7.35,1.82-7.91-5.89-12.87-15-16-24.18-6.17-18.74-5.11-39.2-.23-58.1,7-26.92,23.48-50.79,44.62-68.66C1383.58,479.8,1402.28,469.79,1422.57,467Z" transform="translate(-246.11 -352.28)"/>
    <path d="M1475.89,488.16c2.94-3.17,6.56.8,8.55,3a71.35,71.35,0,0,1,14.82,41.05c1.31,26.55-8,52.74-22.68,74.59-15.18,21.19-35.85,39.1-60.45,48.33-15,6-32.12,8.11-47.77,3.42-4.82-2.36-3.06-8.41-2.53-12.6,6.06-31.6,24.9-62.51,54.56-76.81a131.39,131.39,0,0,0,41.91-49.32,218.91,218.91,0,0,0,11-26.05A20.23,20.23,0,0,1,1475.89,488.16Z" transform="translate(-246.11 -352.28)"/>
  </g>
</svg>
